<svg width="1080" height="720" viewBox="0 0 1080 720" xmlns="http://www.w3.org/2000/svg" xmlns:xlink="http://www.w3.org/1999/xlink">
    <g id="borg">
        <path id="Shape" fill="#03d9c5" fill-rule="evenodd" stroke="none" d="M 1044.575562 309.310852 C 1050.191895 315.675964 1053 323.351471 1053 332.337494 C 1053 341.3237 1049.255859 352.368896 1041.767456 365.473602 C 1032.406982 387.938721 1024.1698 415.832672 1017.055847 449.155975 C 1009.941895 482.479431 1002.921631 509.156403 995.994812 529.187866 C 989.068054 549.21936 981.579712 566.348755 973.529785 580.576843 C 965.479736 594.80481 954.528137 606.598816 940.6745 615.95929 C 926.820984 625.319824 910.908386 630 892.936157 630 C 867.850037 630 622.083862 596.11145 402.074036 581.41925 C 290.361694 573.959106 45.766232 557.169678 31.961699 546.036682 C 21.821198 537.858643 23.02734 519.482605 41.50935 512.619934 C 61.203751 505.307098 311.05899 527.821594 452.620483 536.489014 C 644.9823 548.266968 716.516357 553.709351 754.495117 557.550049 C 792.554993 561.398926 884.88623 573.275635 893.497864 573.275635 C 902.109497 573.275635 909.97229 567.659424 917.086182 556.426819 C 924.200134 545.194214 929.629211 533.025818 933.373413 519.921021 C 942.733887 489.218567 948.537354 467.315338 950.783813 454.210632 C 925.323242 469.93634 904.636963 477.799011 888.723938 477.799011 C 872.811157 477.799011 857.366577 469.093903 842.389771 451.68335 C 827.412964 434.272797 819.924622 417.798615 819.924622 402.260193 C 819.924622 386.721741 824.136841 367.252106 832.561279 343.850891 C 840.985718 320.449615 851.843811 297.048737 865.13562 273.647461 C 878.427612 250.246246 895.276245 230.121429 915.682129 213.272552 C 936.088013 196.423645 956.587219 187.999329 977.180298 187.999329 C 991.033875 187.999329 1002.827881 191.462708 1012.562805 198.389465 C 1022.297791 205.316223 1029.411621 214.582947 1033.904663 226.189972 C 1041.767456 246.408661 1045.698853 269.247955 1045.698853 294.708496 C 1045.698853 298.452667 1045.324463 303.320038 1044.575562 309.310852 Z M 889.004822 399.732819 C 889.004822 404.600281 891.064148 407.033997 895.1828 407.033997 C 906.040894 407.033997 923.638306 397.111969 947.975647 377.267761 C 972.312988 357.423462 988.599976 337.766693 996.837219 318.296814 L 996.837219 307.625916 C 996.837219 283.288635 994.59082 268.499237 990.097717 263.257385 C 987.851257 260.636475 984.855896 259.325928 981.111755 259.325928 C 963.139526 259.325928 943.295593 278.233917 921.579224 316.050354 C 899.862915 353.866791 889.004822 381.760651 889.004822 399.732819 Z"/>
        <path id="path1" fill="#859ea3" fill-rule="evenodd" stroke="none" d="M 676.990601 282.914398 L 673.620911 219.45047 C 673.620911 198.48291 680.173096 187.999329 693.277832 187.999329 C 700.766113 187.999329 708.16095 190.807434 715.462036 196.423767 C 722.763245 202.040039 728.285828 210.838837 732.03009 222.82019 C 744.760315 211.587616 758.707275 202.508118 773.871216 195.581299 C 789.035278 188.654541 802.420654 185.191162 814.02771 185.191162 C 841.360291 185.191162 855.026428 191.743408 855.026428 204.848083 C 855.026428 211.587708 853.80957 216.548706 851.375854 219.731293 C 848.942139 222.913818 847.070068 225.253906 845.759521 226.751648 C 844.449097 228.249298 842.202637 230.214935 839.02002 232.648651 C 835.837524 235.082367 833.497375 236.86087 831.999695 237.984222 C 823.388062 243.600464 817.210205 247.53186 813.466003 249.77829 C 796.617126 260.262146 782.202209 272.89859 770.220703 287.688141 C 758.239258 302.477783 749.253296 322.976898 743.262573 349.18631 C 733.153259 392.244659 723.32489 424.350769 713.777161 445.505432 C 704.229492 466.660187 693.558655 477.237366 681.764404 477.237366 C 669.970276 477.237366 661.171387 471.621216 655.367981 460.38855 C 649.564453 449.155914 646.66272 438.578735 646.66272 428.656616 C 646.66272 418.734528 650.313232 403.851563 657.614441 384.007202 C 664.915588 364.162994 669.970276 347.033478 672.778381 332.618317 C 675.586487 318.203156 676.990601 301.635345 676.990601 282.914398 Z"/>
        <path id="path2" fill="#859ea3" fill-rule="evenodd" stroke="none" d="M 469.188477 420.513 C 489.407196 411.526886 507.004669 393.367859 521.981445 366.035126 C 536.958252 338.702545 544.446533 313.055115 544.446533 289.092255 C 544.446533 265.129364 541.076843 248.655182 534.33728 239.669006 C 518.237183 249.029572 502.231018 268.686279 486.318115 298.639862 C 470.405243 328.593475 462.448944 354.896118 462.448944 377.548523 C 462.448944 400.200928 464.695435 414.522308 469.188477 420.513 Z M 387.190918 383.445679 C 387.190918 336.643127 401.699432 292.274994 430.717041 250.339966 C 459.734589 208.404938 488.470886 187.437683 516.926758 187.437683 C 545.38269 187.437683 569.345215 197.453308 588.815063 217.484772 C 608.284973 237.516174 618.019714 261.665955 618.019714 289.934753 C 618.019714 318.2034 611.280273 346.939697 597.801208 376.144409 C 584.32196 405.349213 565.414124 429.592621 541.076782 448.875214 C 516.739441 468.157837 490.717651 477.799011 463.01059 477.799011 C 442.41748 477.799011 424.632782 468.625854 409.656006 450.279236 C 394.679199 431.932617 387.190918 409.654999 387.190918 383.445679 Z"/>
        <path id="B" fill="#859ea3" fill-rule="evenodd" stroke="none" d="M 353.682343 342.88266 C 353.682343 364.820984 341.563385 386.405121 317.325104 407.635773 C 293.086792 428.866333 263.718262 445.762115 229.218506 458.323578 C 194.71875 470.885071 161.900253 477.165649 130.762024 477.165649 C 117.315964 477.165649 101.570168 468.938873 83.524147 452.485199 C 65.478119 436.031464 56.455254 422.497131 56.455254 411.881866 C 56.455254 405.866547 57.782143 401.08963 60.435963 397.551239 C 63.089787 394.012817 66.185875 392.243591 69.724319 392.243591 C 73.262741 392.243591 81.135658 395.162781 93.343262 401.001251 C 105.550842 406.83963 114.750648 409.758728 120.942909 409.758728 C 127.135178 409.758728 133.238892 409.228088 139.254211 408.166443 C 130.408127 404.628021 121.56218 398.435852 112.71608 389.589813 C 103.869995 380.743774 99.447014 372.251587 99.447014 364.113159 C 99.447014 360.574768 105.285355 334.833008 116.962181 286.887207 C 128.639023 238.941406 134.831192 197.98468 135.538895 164.015686 C 129.169708 158.000366 123.41983 150.658203 118.289093 141.989014 C 113.158371 133.319885 110.59304 126.862366 110.59304 122.616211 C 110.59304 112.708557 118.377487 104.747253 133.946594 98.731812 C 149.515717 92.716492 168.976807 89.708923 192.33049 89.708923 C 241.868591 89.708923 281.586945 96.254883 311.486694 109.347107 C 341.386475 122.439331 356.336151 143.315796 356.336151 171.977112 C 356.336151 190.023132 348.728607 208.422699 333.513367 227.176422 C 318.298065 245.930145 298.306213 263.091248 273.53714 278.66037 L 278.844788 280.252686 C 300.075409 285.914185 317.855774 294.31781 332.186432 305.463928 C 346.51709 316.610016 353.682343 329.082794 353.682343 342.88266 Z M 259.737335 157.646484 C 248.768188 157.646484 222.938004 161.538757 182.245987 169.323303 C 194.98436 183.47699 201.353439 195.242188 201.353439 204.619019 C 201.353439 213.99588 198.345825 231.245483 192.33049 256.368408 C 197.991974 252.122253 208.07637 245.930054 222.583969 237.791687 C 237.091537 229.653259 246.202866 224.257233 249.918213 221.603424 C 253.633591 218.949585 258.675781 214.968903 265.044952 209.661255 C 277.075623 200.107483 283.090881 189.050049 283.090881 176.488586 C 283.090881 163.927124 275.306458 157.646484 259.737335 157.646484 Z M 286.806213 340.759613 C 286.806213 333.682739 276.633392 327.579041 256.287384 322.448334 C 235.941391 317.317627 219.045609 314.752228 205.599564 314.752228 C 198.168839 314.752228 190.207489 309.267792 181.715256 298.298645 C 165.792267 363.759674 156.238632 399.674286 153.054062 406.043488 C 182.776886 399.674286 212.499313 389.943695 242.222153 376.851471 C 271.945038 363.759277 286.806213 351.72879 286.806213 340.759613 Z"/>
    </g>
</svg>
