<svg width="300" height="300" viewBox="0 0 300 300" xmlns="http://www.w3.org/2000/svg" xmlns:xlink="http://www.w3.org/1999/xlink">
    <g id="iconinverted">
        <g id="g6933">
            <path id="path6733" fill="none" stroke="#4b4c4d" stroke-width="27.986849" stroke-linecap="round" stroke-linejoin="round" opacity="0.5" d="M 152.330704 88.9879 C 152.008469 88.990677 151.708435 89.099731 151.508423 89.284454 C 151.302872 89.469193 151.219528 89.711563 151.28064 89.946304 L 199.050522 269 C 222.163177 259.04657 241.69783 242.297516 255.065384 220.977325 L 153.275223 89.385162 C 153.080765 89.135834 152.71962 88.984421 152.330704 88.9879 Z"/>
            <path id="circle6810" fill="none" stroke="#4b4c4d" stroke-width="27.986849" stroke-linecap="round" stroke-linejoin="round" d="M 149.536072 31.111786 C 81.231491 31.368073 26 86.809982 26 155.111801 C 26 178.407806 32.56155 201.232941 44.934605 220.971771 L 148.319321 87.312805 C 148.663803 86.864838 149.302734 86.589127 149.997223 86.589127 C 150.691711 86.589127 151.330643 86.864838 151.67511 87.312805 L 255.065384 220.977325 C 267.438446 201.237122 274.005554 178.409882 274 155.111801 C 274 86.628723 218.485153 31.111786 150.002777 31.111786 C 149.847214 31.111786 149.691635 31.111786 149.536072 31.111786 Z"/>
        </g>
    </g>
</svg>
